<svg width="55" height="45" viewBox="0 0 55 45" fill="none" xmlns="http://www.w3.org/2000/svg">
<path d="M0.542725 7C0.542725 3.13401 3.67673 0 7.54272 0H47.649C51.515 0 54.649 3.13401 54.649 7V38C54.649 41.866 51.515 45 47.649 45H7.54273C3.67674 45 0.542725 41.866 0.542725 38V7Z" fill="#FF3E3E"/>
<path d="M15.3174 30.8214V15.1734H25.1094V18.1494H18.8454V21.2934H24.1734V24.2454H18.8454V27.8454H25.3494V30.8214H15.3174ZM28.4659 30.8214V15.1734H33.8419C34.7059 15.1734 35.5139 15.2614 36.2659 15.4374C37.0179 15.5974 37.6739 15.8774 38.2339 16.2774C38.7939 16.6614 39.2339 17.1814 39.5539 17.8374C39.8899 18.4774 40.0579 19.2694 40.0579 20.2134C40.0579 21.1254 39.8899 21.9174 39.5539 22.5894C39.2339 23.2614 38.7939 23.8134 38.2339 24.2454C37.6739 24.6774 37.0259 24.9974 36.2899 25.2054C35.5539 25.4134 34.7699 25.5174 33.9379 25.5174H31.9939V30.8214H28.4659ZM31.9939 22.7094H33.7219C35.6419 22.7094 36.6019 21.8774 36.6019 20.2134C36.6019 19.3974 36.3459 18.8214 35.8339 18.4854C35.3219 18.1494 34.5859 17.9814 33.6259 17.9814H31.9939V22.7094Z" fill="#FFF7F7"/>
</svg>
